<mxfile host="65bd71144e">
    <diagram id="tEUOOyqjP-2VZtpq_Lve" name="Page-1">
        <mxGraphModel dx="2341" dy="1807" grid="1" gridSize="10" guides="1" tooltips="1" connect="1" arrows="1" fold="1" page="1" pageScale="1" pageWidth="1169" pageHeight="827" background="none" math="0" shadow="0">
            <root>
                <mxCell id="0"/>
                <mxCell id="1" parent="0"/>
                <mxCell id="75" value="&lt;font style=&quot;font-size: 14px;&quot;&gt;YARA&lt;/font&gt;" style="whiteSpace=wrap;html=1;textOpacity=80;labelBackgroundColor=default;labelBorderColor=default;opacity=50;spacingTop=0;" vertex="1" parent="1">
                    <mxGeometry x="-1044" y="-800" width="920" height="40" as="geometry"/>
                </mxCell>
            </root>
        </mxGraphModel>
    </diagram>
</mxfile>